<svg width="15" height="20" viewBox="0 0 15 20" fill="none" xmlns="http://www.w3.org/2000/svg">
<path fill-rule="evenodd" clip-rule="evenodd" d="M13.2779 0H2.16672C1.40283 0 0.784776 0.9 0.784776 2L0.777832 20L3.55562 16H13.2779C14.0417 16 14.6667 15.1 14.6667 14V2C14.6667 0.9 14.0417 0 13.2779 0ZM4.25005 7H11.1945C11.5765 7 11.889 7.45 11.889 8C11.889 8.55 11.5765 9 11.1945 9H4.25005C3.8681 9 3.5556 8.55 3.5556 8C3.5556 7.45 3.8681 7 4.25005 7ZM8.4167 12H4.25005C3.8681 12 3.5556 11.55 3.5556 11C3.5556 10.45 3.8681 10 4.25005 10H8.4167C8.79865 10 9.11115 10.45 9.11115 11C9.11115 11.55 8.79865 12 8.4167 12ZM11.1945 6H4.25005C3.8681 6 3.5556 5.55 3.5556 5C3.5556 4.45 3.8681 4 4.25005 4H11.1945C11.5765 4 11.889 4.45 11.889 5C11.889 5.55 11.5765 6 11.1945 6Z" fill="#8B96A5"/>
</svg>
